<svg xmlns="http://www.w3.org/2000/svg" version="1.1" xmlns:xlink="http://www.w3.org/1999/xlink" xmlns:svgjs="http://svgjs.dev/svgjs" width="100%" height="100%" viewBox="0 0 1000 600"><rect width="1000" height="600" x="0" y="0" fill="#f6f7f8"/><g><rect width="333.3333333333333" height="333.3333333333333" y="167.40429540031653" fill="#1193d4" transform="matrix(0.8609879346077982,0,0,0.8609879346077982,0,12.368937164333431)" x="145.1820526123047"/><path d="M257.0020791150708 409.0709653583669L241.6953661971622 409.0709653583669L241.6953661971622 259.07096579988274L257.0020791150708 259.07096579988274L257.0020791150708 409.0709653583669ZM382.0020787471409 409.0709653583669L288.2520790230883 409.0709653583669L288.2520790230883 259.07096579988274L382.0020787471409 259.07096579988274L382.0020787471409 273.770039830691L303.5587919409969 273.770039830691L303.5587919409969 325.6218915299201L369.5020787839339 325.6218915299201L369.5020787839339 340.3209655607283L303.5587919409969 340.3209655607283L303.5587919409969 394.37189132755867L382.0020787471409 394.37189132755867L382.0020787471409 409.0709653583669Z " fill="#ffffff" transform="matrix(0.8609879346077982,0,0,0.8609879346077982,0,12.368937164333431)"/><path d="M573.2692752191269 371.7652497041431L561.8487243479399 371.7652497041431L561.8487243479399 259.8481689551185L573.2692752191269 259.8481689551185L573.2692752191269 371.7652497041431ZM592.310722985454 409.07094328715135L584.1501025141711 409.07094328715135L584.1501025141711 398.0389933907872L588.89966998423 398.0389933907872Q594.5775620052549 398.0389933907872 597.9454371203876 395.12448607961466Q601.334901178566 392.20997876844217 601.334901178566 385.3662838229482L601.334901178566 385.3662838229482L601.334901178566 287.8274391423747L612.6690962775702 287.8274391423747L612.6690962775702 388.2376132480293Q612.6690962775702 398.7298395682503 607.6604614909627 403.91118589922365Q602.651826704355 409.07094328715135 592.310722985454 409.07094328715135L592.310722985454 409.07094328715135ZM612.6690962775702 271.8947991746316L601.334901178566 271.8947991746316L601.334901178566 259.07096700547254L612.6690962775702 259.07096700547254L612.6690962775702 271.8947991746316ZM671.0455982732034 374.0968555530811L671.0455982732034 374.0968555530811Q658.7614896801874 374.0968555530811 649.7804893731669 368.6564419055591Q640.8210780091922 363.21602825803706 635.8340321656303 353.34988128614197Q630.8685752651141 343.4837343142469 630.8685752651141 330.1849453980819L630.8685752651141 330.1849453980819Q630.8685752651141 316.43278867795675 635.7692653364932 306.3939301616959Q640.6483664648264 296.3766605884807 649.5645999427097 290.9362469409587Q658.4592444775473 285.4958332934367 670.5706415261975 285.4958332934367L670.5706415261975 285.4958332934367Q683.0058727205336 285.4958332934367 691.7925725401426 291.2169032005531Q700.5792723597516 296.91638416462376 705.0913614563075 307.5597330861649Q709.6034505528635 318.2246709507517 709.2148495780405 332.9915079940258L709.2148495780405 332.9915079940258L697.5568203333504 332.9915079940258L697.5568203333504 328.93278670142996Q697.2329861876646 312.61154575886394 690.518824900445 304.2998026862608Q683.7830746701796 295.98805961365775 670.8944756718834 295.98805961365775L670.8944756718834 295.98805961365775Q657.3582083822155 295.98805961365775 650.1690903479899 304.7747594332667Q642.9799723137644 313.5614592528757 642.9799723137644 329.7963444232589L642.9799723137644 329.7963444232589Q642.9799723137644 345.64262861881906 650.1690903479899 354.38615055233663Q657.3582083822155 363.1296724858542 670.5706415261975 363.1296724858542L670.5706415261975 363.1296724858542Q679.5948197193094 363.1296724858542 686.308981006529 358.9845954210755Q693.0447312367945 354.8179294132511 696.9307409850245 346.98114308765383L696.9307409850245 346.98114308765383L707.5740899065656 351.0830422663411Q702.6086330060494 362.05022533356805 692.9151975785202 368.0735404433246Q683.2433510940365 374.0968555530811 671.0455982732034 374.0968555530811ZM703.0620008100096 332.9915079940258L638.9428399642143 332.9915079940258L638.9428399642143 323.42760622477084L703.0620008100096 323.42760622477084L703.0620008100096 332.9915079940258ZM761.4385028056428 374.0968555530811L761.4385028056428 374.0968555530811Q748.9169158391238 374.0968555530811 740.0654491903778 368.4189635320561Q731.1923935985859 362.7410715110312 726.4644150715727 352.723801937816Q721.7148476015137 342.70653236460083 721.7148476015137 329.709988651076L721.7148476015137 329.709988651076Q721.7148476015137 316.4975555070939 726.5291819007099 306.56664170606166Q731.3651051429516 296.61413896198366 740.2597496777893 291.0441916561873Q749.1543942126268 285.4958332934367 761.4385028056428 285.4958332934367L761.4385028056428 285.4958332934367Q774.0248566012989 285.4958332934367 782.9195011361365 291.1305474283702Q791.8141456709742 296.76526156330374 796.5205352549416 306.76094219347317Q801.2269248389091 316.7350338805969 801.2269248389091 329.709988651076L801.2269248389091 329.709988651076Q801.2269248389091 342.9224217950581 796.4773573688502 352.9181024252275Q791.749378841837 362.91378305539695 782.811556420908 368.50531930423904Q773.8737339999789 374.0968555530811 761.4385028056428 374.0968555530811ZM761.4385028056428 363.1296724858542L761.4385028056428 363.1296724858542Q775.4281378992708 363.1296724858542 782.2718328447648 353.8464269761936Q789.0939388472132 344.56318146653297 789.0939388472132 329.709988651076L789.0939388472132 329.709988651076Q789.0939388472132 314.48978380384176 782.2286549586735 305.4656056107298Q775.3417821270881 296.46301636066363 761.4385028056428 296.46301636066363L761.4385028056428 296.46301636066363Q752.0257236377079 296.46301636066363 745.9376416988142 300.6944491976252Q739.8279708168748 304.9258820345868 736.8271077335194 312.41724527145243Q733.8478335932097 319.93019745136377 733.8478335932097 329.709988651076L733.8478335932097 329.709988651076Q733.8478335932097 344.8654266691731 740.8426511400238 353.9975495775136Q747.8374686868377 363.1296724858542 761.4385028056428 363.1296724858542ZM929.8538475053227 371.7652497041431L918.4332966341357 371.7652497041431L918.4980634632728 316.6702670514597Q918.4980634632728 306.9552426808847 913.1008277018421 301.38529537508833Q907.7035919404117 295.83693701233767 899.3918488678086 295.83693701233767L899.3918488678086 295.83693701233767Q894.6422813977496 295.83693701233767 890.1301923011937 298.0174202599556Q885.6396921476834 300.17631456452784 882.7251848365108 305.01223780676963Q879.8106775253384 309.82657210596574 879.8106775253384 317.59859160242576L879.8106775253384 317.59859160242576L873.0317494089816 315.65558672831077Q872.8158599785244 306.63140853519883 876.57233606848 299.87406936188773Q880.3504011014815 293.11673018857664 886.999795559564 289.33866515557526Q893.6276010746006 285.58218906561956 902.0256999193867 285.58218906561956L902.0256999193867 285.58218906561956Q914.6984094872256 285.58218906561956 922.3193063823657 293.3757975051253Q929.9402032775057 301.1909948876768 929.9402032775057 314.48978380384176L929.9402032775057 314.48978380384176L929.8538475053227 371.7652497041431ZM829.7459186023083 371.7652497041431L818.2390119589382 371.7652497041431L818.2390119589382 287.8274391423747L828.515348848702 287.8274391423747L828.515348848702 308.5096465801767L829.7459186023083 308.5096465801767L829.7459186023083 371.7652497041431ZM879.7243217531556 371.7652497041431L868.4548934832884 371.7652497041431L868.5412492554714 317.44746900110573Q868.5412492554714 307.4086104848448 863.2087803231778 301.62277374859127Q857.8763113908846 295.83693701233767 849.1759673434584 295.83693701233767L849.1759673434584 295.83693701233767Q840.4756232960323 295.83693701233767 835.1215654206932 301.7738963499113Q829.7459186023083 307.73244463053067 829.7459186023083 317.59859160242576L829.7459186023083 317.59859160242576L822.9022236568143 313.8637044555158Q822.9022236568143 305.7894397564157 826.7234665759071 299.3775236718361Q830.5231205519543 292.9656075872566 837.1293371239453 289.2738983264381Q843.7355536959363 285.58218906561956 852.1336525407223 285.58218906561956L852.1336525407223 285.58218906561956Q860.1431504106853 285.58218906561956 866.4039438939448 288.99324206684366Q872.6431484341585 292.4042950680678 876.2269129797485 298.94574481092167Q879.8106775253384 305.4656056107298 879.8106775253384 314.79202900648187L879.8106775253384 314.79202900648187L879.7243217531556 371.7652497041431ZM974.1543586351451 374.0968555530811L974.1543586351451 374.0968555530811Q964.6768126380729 374.0968555530811 958.2648965534933 370.685802551857Q951.8529804689139 367.2531606075871 948.657816898147 361.5752685865622Q945.4842422704257 355.9189655085829 945.4842422704257 349.226393164409L945.4842422704257 349.226393164409Q945.4842422704257 342.38269821891504 948.2260380372325 337.5251860336275Q950.9894227470849 332.66767384834 955.7821681032352 329.558866049756Q960.5533245163399 326.4500582511719 966.8572958856909 324.8308875227428L966.8572958856909 324.8308875227428Q973.2260340841789 323.27648362345076 980.9548756945475 322.0675028128903Q988.6837173049161 320.85852200232983 996.1103137126446 319.97337533745525Q1003.5369101203731 319.06663972953487 1009.1284463692151 318.2246709507517L1009.1284463692151 318.2246709507517L1005.091314019665 320.7073994010098Q1005.3287923931681 308.2721682066737 1000.2769797204691 302.29203098300866Q995.22516704777 296.2903048162978 982.7035800812511 296.2903048162978L982.7035800812511 296.2903048162978Q974.0680028629621 296.2903048162978 968.1310435253885 300.17631456452784Q962.1940841878148 304.0623243127579 959.776122566694 312.46042315754386L959.776122566694 312.46042315754386L948.657816898147 309.2004927576398Q951.529146323228 297.93106448777274 960.2510793136998 291.7134488906047Q968.9514233611259 285.4958332934367 982.8547026825711 285.4958332934367L982.8547026825711 285.4958332934367Q994.3616093259411 285.4958332934367 1002.4142850819956 289.81362190258113Q1010.4453718950043 294.1314105117256 1013.7916580670911 302.29203098300866L1013.7916580670911 302.29203098300866Q1015.3460619663832 305.9405623577357 1015.8210187133891 310.4526514542917Q1016.2743865173492 314.94315160780195 1016.2743865173492 319.606363305678L1016.2743865173492 319.606363305678L1016.2743865173492 371.7652497041431L1006.105994342814 371.7652497041431L1006.105994342814 350.6944412915181L1009.0420905970324 351.94659998817Q1004.7674798739791 362.7410715110312 995.7648906239131 368.4189635320561Q986.7407124308011 374.0968555530811 974.1543586351451 374.0968555530811ZM975.471284160934 364.23070858118604L975.471284160934 364.23070858118604Q983.4807820308971 364.23070858118604 989.4609192545621 361.3593791561049Q995.4410564782271 358.4664607879782 999.111176796 353.45782600137056Q1002.7597081707271 348.449191214763 1003.8391553230132 342.1452198454121L1003.8391553230132 342.1452198454121Q1004.7674798739791 338.108087495862 1004.8538356461621 333.25057531057445Q1004.9401914183451 328.3930631252869 1004.9401914183451 325.9966904472118L1004.9401914183451 325.9966904472118L1009.2795689705353 328.2419405239669Q1003.4505543481902 329.01914247361293 996.6500372887876 329.7963444232589Q989.8495202293851 330.5735463729049 983.2864815434855 331.5882266960538Q976.723442857586 332.6029070192028 971.4341518113839 333.984599374129L971.4341518113839 333.984599374129Q967.850387265794 334.999279697278 964.5256900367527 336.8343398561644Q961.1794038646658 338.647811072005 959.0420985031393 341.6918520414519Q956.9047931416129 344.71430406785305 956.9047931416129 349.226393164409L956.9047931416129 349.226393164409Q956.9047931416129 352.8749245391361 958.7182643574536 356.30756648340594Q960.5533245163399 359.71861948463004 964.6336347519815 361.9638695613852Q968.713944987623 364.23070858118604 975.471284160934 364.23070858118604Z " fill="#1193d4" transform="matrix(0.8609879346077982,0,0,0.8609879346077982,0,12.368937164333431)"/></g></svg>